<?xml version="1.0" standalone="no"?>
<!DOCTYPE svg PUBLIC "-//W3C//DTD SVG 20010904//EN"
 "http://www.w3.org/TR/2001/REC-SVG-20010904/DTD/svg10.dtd">
<svg version="1.0" xmlns="http://www.w3.org/2000/svg"
 width="500.000000pt" height="500.000000pt" viewBox="0 0 500.000000 500.000000"
 preserveAspectRatio="xMidYMid meet">

<g transform="translate(0.000000,500.000000) scale(0.100000,-0.100000)"
fill="#000000" stroke="none">
<path d="M0 3885 c0 -885 3 -1115 13 -1115 6 0 66 12 132 26 252 54 405 9 515
-151 76 -111 93 -288 38 -407 -36 -78 -107 -151 -182 -188 -59 -29 -334 -95
-346 -84 -3 3 -42 184 -87 402 l-81 397 -1 -1382 -1 -1383 2500 0 2500 0 0
1377 c0 1168 -2 1375 -14 1363 -34 -37 -457 -562 -454 -564 1 -1 53 -13 113
-25 61 -12 131 -27 156 -32 l46 -10 -16 -77 c-9 -42 -20 -77 -24 -76 -49 6
-587 120 -587 125 0 4 104 135 231 290 127 156 227 285 222 286 -4 1 -73 16
-152 33 -79 16 -146 32 -149 34 -3 4 13 97 24 137 4 15 38 10 291 -42 158 -33
293 -59 300 -59 11 0 13 210 13 1120 l0 1120 -2500 0 -2500 0 0 -1115z m2243
-995 c-3 -3 -53 -7 -113 -10 -60 -3 -111 -8 -114 -11 -3 -3 1 -129 9 -280 8
-151 15 -297 15 -325 l0 -51 -82 -5 c-46 -3 -85 -4 -87 -2 -2 2 -12 149 -21
326 -10 178 -18 325 -19 327 0 2 -52 2 -115 -1 l-114 -4 -6 35 c-6 36 -8 120
-3 122 1 0 146 8 322 17 l320 17 6 -75 c3 -41 4 -77 2 -80z m688 -265 l157
-410 -85 -3 c-47 -2 -90 2 -97 7 -7 6 -23 44 -35 84 l-24 74 -66 7 c-36 3
-109 6 -162 6 l-96 0 -32 -85 -32 -85 -92 7 c-51 3 -93 6 -93 7 -2 1 306 722
331 774 l15 33 77 -3 76 -3 158 -410z m380 389 l37 -5 50 -197 c28 -108 63
-246 78 -306 l27 -109 105 214 c57 118 119 247 137 286 l34 73 63 -6 c35 -4
77 -9 95 -13 l32 -6 -205 -391 -204 -390 -77 8 c-42 5 -77 9 -78 11 -2 2 -235
801 -243 830 -4 17 0 18 54 12 32 -3 75 -8 95 -11z m-1886 -432 c126 -226 209
-385 202 -387 -7 -2 -50 -8 -95 -13 l-84 -8 -40 79 -39 79 -37 -5 c-20 -3 -82
-11 -137 -17 -154 -17 -140 -8 -160 -104 -17 -82 -19 -84 -49 -90 -60 -10
-156 -19 -156 -13 0 14 221 824 228 837 9 15 73 28 126 26 26 -1 40 -23 241
-384z m2746 333 c31 -4 62 -11 69 -15 10 -6 0 -90 -49 -406 -34 -219 -63 -400
-65 -401 -2 -2 -41 2 -87 9 -74 12 -84 16 -82 33 5 40 113 741 119 768 4 20
10 26 22 23 10 -3 42 -8 73 -11z"/>
<path d="M2635 2688 c-28 -73 -51 -138 -53 -145 -3 -10 22 -13 103 -13 82 0
106 3 102 13 -2 6 -24 72 -48 145 -24 72 -46 132 -49 132 -3 0 -28 -60 -55
-132z"/>
<path d="M1122 2599 c-18 -83 -32 -152 -30 -153 2 -2 193 20 206 23 3 1 -137
281 -141 281 -1 0 -17 -68 -35 -151z"/>
<path d="M252 2651 c-18 -5 -35 -11 -38 -14 -3 -3 16 -112 43 -241 54 -265 46
-252 134 -221 64 23 104 59 135 120 23 48 26 64 22 123 -7 100 -51 172 -129
212 -43 23 -121 32 -167 21z"/>
</g>
</svg>
